<svg width="212" height="119" viewBox="0 0 212 119" fill="none" xmlns="http://www.w3.org/2000/svg">
<path d="M126.853 29.9102H108.551C102.694 29.9102 97.9019 34.2596 97.9019 39.6797V71.1297C97.9019 75.9476 101.695 79.8956 106.687 80.6985V68.8546C106.687 63.5014 110.88 59.085 116.005 59.085H119.399C124.59 59.085 128.717 63.4345 128.717 68.8546V80.6985C133.708 79.8956 137.435 75.8807 137.435 71.1297V39.6797C137.502 34.2596 132.71 29.9102 126.853 29.9102Z" fill="#FFCB0B"/>
<path d="M117.07 26.7656C121.862 26.7656 125.655 23.2191 125.655 18.8027C125.655 14.3863 121.795 10.8398 117.07 10.8398C112.278 10.8398 108.484 14.3863 108.484 18.8027C108.418 23.2191 112.278 26.7656 117.07 26.7656Z" fill="#FFCB0B"/>
<path d="M146.021 11.9108C149.548 11.9108 152.41 9.23425 152.41 5.95542C152.41 2.67659 149.548 0 146.021 0C142.493 0 139.631 2.67659 139.631 5.95542C139.631 7.15989 140.031 8.29744 140.696 9.23425L130.58 19.5391C129.116 19.8068 127.984 21.0782 127.984 22.6841C127.984 24.4239 129.382 25.8961 131.179 25.8961H145.754C147.485 25.8961 148.949 24.4908 148.949 22.6841C148.949 20.9444 147.551 19.4722 145.754 19.4722H133.708L142.227 10.7064C143.292 11.4424 144.556 11.9108 146.021 11.9108Z" fill="#FFCB0B"/>
<path d="M106.82 22.6841C106.82 21.0113 105.556 19.673 103.958 19.5391L93.3096 9.9034C94.3079 8.83276 94.9069 7.49447 94.9069 5.95542C94.9069 2.67659 92.0451 0 88.5177 0C84.9903 0 82.1284 2.67659 82.1284 5.95542C82.1284 9.23425 84.9903 11.9108 88.5177 11.9108C89.5825 11.9108 90.6474 11.6432 91.5126 11.2417L100.697 19.5391H89.1167C87.3862 19.5391 85.922 20.9444 85.922 22.7511C85.922 24.4908 87.3197 25.963 89.1167 25.963H103.692C105.423 25.8291 106.82 24.4239 106.82 22.6841Z" fill="#FFCB0B"/>
<path d="M0 102.448V81.5707C0 77.3551 0.598993 73.8086 1.86353 70.9982C3.12807 68.1208 4.79192 65.8457 6.92167 64.1059C8.98486 62.5 11.3808 61.2955 14.1096 60.5594C16.8383 59.8234 19.6336 59.4219 22.562 59.4219C22.7617 59.4219 23.0279 59.4219 23.3606 59.4219C23.6934 59.4219 23.9596 59.4219 24.1593 59.4219V70.9312H20.4322C17.3042 70.9312 15.0413 71.6673 13.5106 73.2064C11.9798 74.7454 11.2477 77.0874 11.2477 80.2993V102.448H0Z" fill="#202122"/>
<path d="M54.7081 100.641C52.4452 101.846 50.0493 102.582 47.5202 102.849C44.9911 103.117 42.7948 103.251 40.8647 103.251C37.0045 103.251 33.6103 102.18 30.7484 100.106C27.82 98.0316 26.4224 94.552 26.4224 89.6672C26.4224 85.117 27.7535 81.9051 30.3491 79.9645C32.9447 78.024 36.339 76.7526 40.3988 76.0835C40.9313 76.0835 41.5968 76.0166 42.3289 75.8158C43.061 75.682 43.9262 75.5482 44.9246 75.4143C49.6499 74.7452 51.9793 73.34 51.9793 71.1987C51.9793 69.5928 51.1141 68.5221 49.5168 68.0537C47.853 67.5853 46.3222 67.3176 44.9246 67.3176C43.3938 67.3176 42.0627 67.5184 40.9313 67.9868C39.7333 68.3883 38.8681 69.2582 38.3356 70.3957H27.5538C27.9531 67.05 29.4839 64.3065 32.0795 62.1652C35.0079 59.6894 39.1343 58.418 44.4587 58.418C50.4486 58.418 54.9743 59.4217 57.9693 61.4961C61.0973 63.6373 62.6281 66.6485 62.6281 70.5296V85.2508C62.6281 89.6003 61.8294 92.946 60.2987 95.355C58.7014 97.8308 56.8378 99.5706 54.7081 100.641ZM52.1125 80.7675C50.5817 81.5036 48.5185 82.2397 45.8563 82.8419L42.1293 83.6449C40.1992 84.1802 38.8015 84.9162 37.9363 85.7192C37.2042 86.9237 36.8049 88.1282 36.8049 89.2657C36.8049 90.8717 37.2708 92.21 38.2691 93.1468C39.2674 94.0167 40.5985 94.4182 42.462 94.4182C45.457 94.4182 47.853 93.5483 49.5168 91.8085C51.2472 90.0687 52.1125 87.7267 52.1125 84.7155V80.7675Z" fill="#202122"/>
<path d="M77.2035 112.82C77.2035 114.359 76.6711 115.63 75.6062 116.701C74.5413 117.771 73.2768 118.307 71.7461 118.307H66.2886V78.024C66.2886 70.4627 68.4849 65.3102 72.8775 62.5667C77.2701 59.8232 82.062 58.418 87.1867 58.418C89.8489 58.418 92.5777 58.9533 95.3064 59.957C98.0351 60.9607 100.231 62.4329 101.829 64.4403C105.023 68.6559 106.687 74.0761 106.687 80.6337C106.687 87.459 105.09 92.9461 101.829 97.1617C98.6341 101.244 94.4412 103.318 89.4496 103.318C86.7874 103.318 84.3914 102.849 82.3948 101.846C80.2651 100.775 78.5346 99.1022 77.2701 96.8271V112.82H77.2035ZM95.5726 81.0352C95.5726 76.8196 94.7739 73.6077 93.1766 71.3325C91.5793 69.0574 89.2499 67.9199 86.255 67.9199C83.3266 67.9199 81.1303 69.0574 79.4664 71.3325C77.9356 73.4069 77.2035 76.6188 77.2035 81.0352C77.2035 85.117 78.0022 88.1951 79.5995 90.2695C81.1968 92.5446 83.5262 93.6821 86.5212 93.6821C89.3165 93.6821 91.5128 92.5446 93.1101 90.2695C94.774 87.9944 95.5726 84.9163 95.5726 81.0352Z" fill="#202122"/>
<path d="M158.067 46.5742H163.525C165.055 46.5742 166.32 47.1095 167.385 48.2471C168.45 49.3846 168.982 50.656 168.982 52.0612V83.6451C168.982 91.3403 166.786 96.4927 162.393 99.1693C158.001 101.846 153.209 103.184 148.084 103.184C145.289 103.184 142.56 102.716 139.898 101.779C137.236 100.842 135.039 99.3701 133.442 97.2957C130.314 93.2808 128.783 87.8607 128.783 80.9685C128.783 74.1431 130.314 68.723 133.442 64.6412C136.637 60.4256 140.763 58.3512 145.821 58.3512C148.483 58.3512 150.879 58.8866 152.876 59.9572C155.006 61.2286 156.736 62.9014 158.001 64.9758V46.5742H158.067ZM139.698 80.567C139.698 84.9164 140.497 88.1953 142.094 90.4704C143.691 92.7455 146.021 93.883 149.016 93.883C151.944 93.883 154.14 92.7455 155.804 90.4704C157.335 88.1953 158.067 84.9164 158.067 80.567C158.067 76.6859 157.269 73.6078 155.671 71.3327C153.941 69.1914 151.678 68.1208 148.75 68.1208C145.954 68.1208 143.758 69.2584 142.161 71.5335C140.497 73.6747 139.698 76.6859 139.698 80.567Z" fill="#202122"/>
<path d="M178.3 98.5664C176.037 96.6259 174.44 94.0162 173.442 90.7374C172.443 87.4586 171.978 84.0459 171.978 80.4325C171.978 77.4882 172.377 74.6109 173.176 71.6667C173.974 68.7224 175.239 66.3135 176.969 64.3729C179.764 61.161 183.358 59.2205 187.751 58.6183C192.144 58.016 196.137 58.3506 199.664 59.6889C203.724 61.2948 206.719 64.1053 208.649 68.1202C210.446 71.6667 211.378 75.8154 211.378 80.5663C211.378 84.0459 210.979 86.9902 210.246 89.466C209.514 91.9419 208.516 94.0831 207.318 95.756C204.722 99.3025 201.461 101.511 197.468 102.381C193.941 103.384 190.347 103.451 186.753 102.648C183.358 101.845 180.43 100.507 178.3 98.5664ZM186.021 70.0607C183.758 72.5365 182.759 76.2169 182.959 81.1686C183.159 86.0534 184.09 89.5329 185.688 91.4735C186.353 92.3434 187.485 93.0794 189.082 93.6817C190.679 94.2839 192.343 94.3508 194.007 93.8155C195.671 93.3471 197.135 92.1426 198.466 90.2021C199.731 88.2615 200.463 85.1165 200.529 80.834C200.529 76.9529 199.93 74.0087 198.666 72.0681C197.401 70.1276 196.004 68.8562 194.406 68.3209C192.809 67.7856 191.212 67.7856 189.548 68.254C187.951 68.6555 186.819 69.3246 186.021 70.0607Z" fill="#202122"/>
<path d="M124.191 95.9572C124.191 99.7714 121.329 102.916 117.735 102.916C114.141 102.916 111.279 99.8383 111.279 95.9572V70.2619C111.279 66.4477 114.141 63.3027 117.735 63.3027C121.329 63.3027 124.191 66.3808 124.191 70.2619V95.9572Z" fill="#202122"/>
</svg>
