<?xml version="1.0" standalone="no"?>
<!DOCTYPE svg PUBLIC "-//W3C//DTD SVG 20010904//EN"
 "http://www.w3.org/TR/2001/REC-SVG-20010904/DTD/svg10.dtd">
<svg version="1.0" xmlns="http://www.w3.org/2000/svg"
 width="768.000000pt" height="768.000000pt" viewBox="0 0 768.000000 768.000000"
 preserveAspectRatio="xMidYMid meet">
<metadata>
Created by potrace 1.14, written by Peter Selinger 2001-2017
</metadata>
<g transform="translate(0.000000,768.000000) scale(0.100000,-0.100000)"
fill="#000000" stroke="none">
<path d="M4430 6013 c-47 -2 -460 -4 -918 -5 l-834 -3 -24 -28 c-32 -38 -30
-75 9 -155 17 -37 34 -69 37 -72 3 -3 29 -52 58 -109 87 -170 308 -597 402
-776 31 -60 97 -186 145 -280 48 -93 92 -175 97 -182 10 -12 4 -115 -7 -134
-7 -10 -12 -32 -20 -92 -4 -22 -10 -49 -14 -61 -5 -11 -12 -43 -16 -71 -9 -52
-11 -62 -15 -70 -4 -7 -5 -15 -14 -65 -5 -25 -10 -52 -11 -60 -2 -8 -8 -34
-15 -58 -6 -24 -13 -56 -15 -72 -2 -16 -6 -38 -10 -49 -3 -11 -7 -28 -9 -38
-2 -10 -10 -46 -17 -80 -24 -118 14 -155 155 -148 69 4 215 10 419 18 27 2 52
-2 57 -8 4 -5 39 -77 78 -160 104 -223 124 -270 122 -274 -1 -2 3 -7 10 -11 6
-4 13 -13 14 -21 2 -8 17 -43 33 -79 17 -36 52 -110 77 -165 26 -55 57 -121
69 -147 25 -53 48 -70 97 -74 32 -2 43 6 145 110 61 62 175 182 255 266 80 84
163 172 185 195 44 45 322 339 370 390 38 40 325 343 385 405 25 26 110 116
190 200 80 84 192 202 250 263 145 152 186 195 335 353 72 75 155 162 185 194
30 31 107 112 170 179 63 67 158 167 210 221 85 88 245 257 384 403 26 29 82
87 124 130 41 42 72 77 68 77 -4 0 -1 7 8 15 15 15 13 53 -4 85 -25 47 59 45
-1579 45 -845 0 -1574 -1 -1621 -2z"/>
<path d="M2730 4340 c-37 -10 -92 -40 -117 -63 -44 -40 -24 -118 37 -144 33
-13 60 -8 120 22 73 37 94 87 60 142 -21 35 -64 53 -100 43z"/>
<path d="M2285 4041 c-21 -9 -73 -63 -116 -121 -46 -62 -46 -107 2 -152 37
-36 119 -14 152 41 9 14 31 43 50 64 19 21 37 52 39 68 5 29 -18 79 -42 94
-19 11 -64 15 -85 6z"/>
<path d="M1984 3514 c-29 -14 -45 -44 -59 -113 -2 -9 -8 -35 -13 -59 -6 -24
-9 -51 -7 -60 2 -9 4 -20 4 -23 1 -3 10 -17 22 -30 26 -30 87 -32 125 -3 15
11 26 22 25 24 -1 3 2 17 7 31 6 14 13 43 16 63 3 21 10 45 14 54 5 9 8 24 7
32 -1 8 -3 22 -3 31 -3 27 -52 69 -81 69 -14 0 -40 -7 -57 -16z"/>
<path d="M1918 2925 c-27 -15 -52 -69 -47 -102 2 -10 -2 -28 -9 -40 -25 -45
-9 -133 25 -133 7 0 16 -6 19 -14 8 -20 85 -35 177 -35 60 -1 105 64 85 119
-12 32 -38 61 -49 54 -5 -3 -9 0 -9 7 0 7 -3 9 -6 6 -10 -9 -45 12 -42 26 5
25 -13 85 -30 100 -26 23 -83 29 -114 12z"/>
<path d="M1371 2872 c-65 -4 -107 -30 -116 -73 -8 -37 9 -83 39 -102 18 -12
109 -16 218 -8 23 1 63 41 71 70 11 43 -32 110 -72 112 -61 3 -93 4 -140 1z"/>
<path d="M864 2770 c-3 -3 -9 -5 -12 -5 -4 -1 -29 -11 -56 -23 -27 -12 -52
-22 -55 -22 -4 0 -20 -13 -35 -29 -30 -32 -37 -77 -16 -115 16 -31 79 -53 110
-40 8 4 17 8 20 9 3 1 27 11 53 23 27 12 52 22 56 22 15 0 59 51 65 76 9 34
-19 90 -52 103 -27 11 -68 11 -78 1z"/>
<path d="M2483 2621 c-43 -12 -73 -48 -73 -89 0 -49 18 -68 116 -122 83 -45
120 -51 159 -26 22 15 43 58 39 84 -1 6 -2 16 -3 21 -2 18 -53 59 -109 89 -77
41 -103 50 -129 43z"/>
<path d="M371 2419 c-17 -10 -31 -22 -31 -27 0 -5 -8 -17 -17 -28 -79 -86 -96
-167 -46 -210 34 -29 88 -31 121 -5 12 11 22 22 22 25 0 3 22 37 49 74 40 56
48 74 44 103 -7 68 -82 105 -142 68z"/>
<path d="M2005 2318 c-33 -39 -30 -78 14 -187 34 -83 51 -100 103 -101 68 0
107 56 86 125 -5 17 -11 37 -13 45 -9 42 -56 130 -73 139 -12 6 -36 11 -55 11
-27 0 -41 -7 -62 -32z"/>
<path d="M2906 2229 c-34 -40 -33 -74 3 -130 16 -25 36 -63 46 -83 32 -68 103
-85 154 -37 49 45 44 70 -37 217 -38 69 -122 86 -166 33z"/>
<path d="M143 1889 c-23 -8 -56 -55 -59 -84 -2 -11 -5 -38 -8 -59 -10 -80 50
-132 122 -104 46 17 63 50 69 133 5 54 3 64 -18 87 -25 27 -74 39 -106 27z"/>
<path d="M2315 1815 c-40 -16 -57 -38 -60 -77 -3 -33 8 -62 31 -85 7 -7 21
-23 31 -35 73 -91 141 -111 194 -59 30 31 37 67 19 101 -18 34 -135 149 -160
158 -18 7 -35 6 -55 -3z"/>
<path d="M2919 1702 c-14 -9 -36 -27 -50 -40 -13 -13 -38 -32 -56 -43 -63 -39
-63 -132 0 -163 19 -8 46 -13 62 -10 62 11 181 119 188 171 11 78 -77 131
-144 85z"/>
</g>
</svg>
